<svg xmlns="http://www.w3.org/2000/svg" width="838.458" height="268.0322" viewBox="0 0 838.458 268.0322"><defs><style>.cls-1{fill:none;}.cls-2{fill:#fff;}.cls-3{fill:#010101;}.cls-4{fill:#50b2ce;}.cls-5{fill:#6ab345;}.cls-6{fill:#74cbf1;}</style></defs><title>COG-Logo-White</title><g id="Layer_2" data-name="Layer 2"><g id="Layer_1-2" data-name="Layer 1"><rect id="SVGID" class="cls-1" width="838.458" height="268.0322"/><path class="cls-2" d="M369.5289,118.9967c.118-5.244-.2605-10.4881-2.6855-13.4341-2.4338-2.926-7.93-3.9592-10.3656-3.9592-9.7087,0-13.5477,5.8853-13.9507,7.1591-.3652,1.02-2.6722,3.329-2.6722,19.1859v24.6793c0,22.6418,7.42,25.3273,16.4759,25.3273,3.5985,0,14.4784-1.2715,14.6054-19.3106H383.081c.5166,29.1818-20.07,29.1818-26.0934,29.1818-11.5035,0-29.16-.7793-29.16-36.5925V125.1293c0-26.0867,11.5013-33.5219,29.6606-33.5219,18.3,0,25.3407,9.4861,24.185,27.3893Z"/><path class="cls-2" d="M393.3148,154.5508c0-18.9164,2.18-34.5284,24.5524-34.5284,22.3992,0,24.568,15.6119,24.568,34.5284,0,28.5183-10.8778,32.6222-24.568,32.6222s-24.5524-4.1039-24.5524-32.6222m38.1113-4.4692c0-17.6583-5.4912-21.4794-13.5589-21.4794-8.05,0-13.5565,3.8211-13.5565,21.4794,0,20.9807,2.6921,28.5228,13.5565,28.5228,10.8823,0,13.5589-7.5421,13.5589-28.5228"/><path class="cls-2" d="M489.5167,121.3008h10.4792v71.1164c0,14.454-9.5974,17.9078-23.8019,17.9078-10.7309,0-20.4529-5.3754-19.5578-17.2664h11.7684c.1269,6.03,4.0773,9.33,9.8424,9.33,7.2793,0,11.27-4.4825,11.27-11.1249V177.8252h-.4008c-2.6855,5.1282-8.5552,8.0631-14.1935,8.0631-17.5269,0-20.9806-15.0775-20.9806-34.29,0-29.674,14.9706-31.5756,20.2058-31.5756,6.7916,0,12.1381,2.9326,15.1,9.1988h.2694Zm-12.2917,7.4218c-11.8932,0-12.2852,14.32-12.2852,22.8757,0,20.7357,4.7409,25.5946,12.55,25.5946,12.6525,0,12.2651-14.9662,12.2651-23.92,0-9.593.6435-24.55-12.53-24.55"/><path class="cls-2" d="M552.0607,185.889V141.1309c0-6.9119-2.4251-12.5278-11.3789-12.5278-11.519,0-13.1891,10.2164-13.1891,19.0411V185.889H517.0178v-51.16c0-4.4825-.2582-8.9517-.6524-13.4274h11.1272v8.317h.5188c4.0772-7.3038,8.9495-9.5951,17.2641-9.5951,13.8083,0,17.2821,8.31,17.2821,21.1076V185.889Z"/><path class="cls-2" d="M581.0876,93.5445H592.856v11.25H581.0876Zm11.1294,92.3443h-10.49V121.3012h10.49Z"/><polygon class="cls-2" points="648.109 130.901 619.591 177.32 649.011 177.32 649.011 185.889 608.201 185.889 608.201 176.055 636.35 130.137 636.35 129.867 609.59 129.867 609.59 121.301 648.109 121.301 648.109 130.901"/><path class="cls-2" d="M694.5391,176.5524h-.2717c-3.1776,7.4174-8.17,10.6194-16.231,10.6194-13.69,0-17.6383-8.838-17.6383-21.2322,0-19.5778,19.1748-20.4619,33.8693-20.0878.2717-8.5552.403-17.9032-10.86-17.9032-7.0389,0-10.74,4.7207-10.1007,11.5035H661.9213c.5031-14.4517,8.19-19.4286,21.8691-19.4286,16.6251,0,20.9873,8.58,20.9873,19.4286v31.0947a101.2083,101.2083,0,0,0,1.2782,15.3424H694.5391ZM670.88,166.7078c0,6.264,3.0662,11.8977,10.0894,11.8977,6.4065,0,14.3316-3.9681,13.2984-24.8241-9.9537.147-23.3878-.7593-23.3878,12.9264"/><path class="cls-2" d="M756.8271,185.889V141.1309c0-6.9119-2.4294-12.5278-11.3744-12.5278-11.5258,0-13.1891,10.2164-13.1891,19.0411V185.889H721.7821v-51.16c0-4.4825-.2516-8.9517-.63-13.4274h11.1117v8.317h.5277c4.0839-7.3038,8.9515-9.5951,17.2641-9.5951,13.8215,0,17.262,8.31,17.262,21.1076V185.889Z"/><path class="cls-2" d="M788.0377,121.3005V108.8863l10.4925-4.7252v17.1395h14.0687v7.9206H798.53v39.5252c0,4.0995,0,9.3368,9.5952,9.3368.7748,0,2.4338-.2583,4.7251-.51v8.0631c-3.4536.2516-6.9029,1.0154-10.3611,1.0154-9.9715,0-14.4517-4.0928-14.4517-11.5147v-45.916H777.416v-7.9206Z"/><path class="cls-3" d="M146.7746,20.3362a118.8863,118.8863,0,1,0,118.894,118.8919A118.8836,118.8836,0,0,0,146.7746,20.3362"/><path class="cls-4" d="M156.0507,207.3126c0,5.6471-2.4161,12.0847-9.2545,12.0847-6.8451,0-8.8737-6.4376-8.8737-12.0847V190.2155A220.7522,220.7522,0,0,1,86.76,157.54v47.7621c0,34.6508,27.4,51.9729,60.036,51.9729,31.6269,0,59.3791-16.6741,60.3923-50.0467-16.1063-.3451-33.5463-3.61-51.1378-9.7109Z"/><path class="cls-4" d="M188.2707,165.4835H156.0515v.0245c7.6757,4.0794,15.1,6.3285,21.907,6.3218,7.4976,0,10.359-2.5207,10.3122-6.3463"/><path class="cls-4" d="M114.9333,102.5113c-20.99.0223-5.852,20.5175,8.4038,36.2073a161.8681,161.8681,0,0,0,14.5853,14.2023v-43.15c-1.1957-.7148-2.4026-1.3739-3.63-1.9929q-10.0806-5.2909-19.36-5.2664"/><path class="cls-4" d="M137.9234,71.114c0-5.6292,2.0263-12.0914,8.8737-12.0914,6.8385,0,9.2545,6.4621,9.2545,12.0914V84.0984a190.4431,190.4431,0,0,1,30.32,17.7874h20.8649V73.136c0-34.6442-28.1954-51.964-60.4391-51.964-30.6872,0-56.7471,15.318-59.74,45.9517a171.43,171.43,0,0,1,50.8662,9.6308Z"/><path class="cls-5" d="M238.3168,151.9713l-56.4977.0847c3.7877,5.0392,6.4042,9.8156,6.451,13.4274h18.9677v39.8191c0,.6613-.0289,1.2871-.049,1.9261,1,.0268,1.984.0312,2.9839.0312,19.6468-.0312,34.4927-3.8523,40.672-12.4833,6.1993-8.8715,3.2378-22.8066-12.5278-42.8053"/><path class="cls-5" d="M87.0566,67.1236c-1.4653-.0423-2.9037-.06-4.3445-.06-46.6932.0846-56.589,26.3583-15.5585,71.4816A213.9053,213.9053,0,0,0,86.76,157.5395V73.1359c0-2.0731.1069-4.0572.2962-6.0123"/><path class="cls-5" d="M156.0507,84.0974a184.9032,184.9032,0,0,0-18.1282-7.3438V109.77a68.33,68.33,0,0,1,14.7212,11.6571l56.7738-.0824a194.7228,194.7228,0,0,0-23.047-19.46h-30.32Z"/><path class="cls-5" d="M156.0507,197.5161v-32.01a103.0791,103.0791,0,0,1-18.1282-12.5857v37.294q9.0585,4.1419,18.1282,7.3016"/><path class="cls-6" d="M137.9234,152.92a161.2788,161.2788,0,0,1-14.5876-14.2023c-14.2536-15.6876-29.3934-36.1828-8.4016-36.2073q9.2789-.02,19.3573,5.2686c1.2292.619,2.4338,1.2781,3.6319,1.9907V76.7531a171.494,171.494,0,0,0-50.8662-9.6286c-.1893,1.9551-.2984,3.9392-.2984,6.0123V157.54a220.7166,220.7166,0,0,0,51.1646,32.6757Z"/><path class="cls-6" d="M156.0507,101.8858h30.32a190.3442,190.3442,0,0,0-30.32-17.7874Z"/><path class="cls-6" d="M207.2373,165.4835H188.2718c.0446,3.8256-2.8146,6.3463-10.3121,6.3463-6.8073.0067-14.2335-2.2423-21.9092-6.3218v32.0076c17.5915,6.1036,35.0316,9.3658,51.1378,9.7132.02-.6391.049-1.2648.049-1.9261Z"/><path class="cls-2" d="M275.9387,217.3782a10.6388,10.6388,0,1,1,3.1131-7.5421,10.2274,10.2274,0,0,1-3.1131,7.5421m-13.9864-13.9975a8.8345,8.8345,0,0,0-2.6632,6.4688,8.94,8.94,0,0,0,2.65,6.5155,9.1178,9.1178,0,0,0,12.942,0,8.919,8.919,0,0,0,2.6654-6.5155,9.1231,9.1231,0,0,0-15.5941-6.4688m6.2551.5923a8.8779,8.8779,0,0,1,3.1843.4208,2.8928,2.8928,0,0,1,1.81,2.9572,2.5443,2.5443,0,0,1-1.14,2.3025,4.3984,4.3984,0,0,1-1.6856.5656,2.8324,2.8324,0,0,1,2.0041,1.1446,3.2121,3.2121,0,0,1,.6346,1.8059v.8528c0,.2717.0089.5612.0267.8706a1.8739,1.8739,0,0,0,.1024.6035l.0735.1447h-1.9262c-.0089-.0379-.02-.0757-.0289-.1157-.009-.0379-.02-.08-.0289-.1292l-.0446-.3763v-.9241a2.86,2.86,0,0,0-1.1-2.67,4.9926,4.9926,0,0,0-2.2869-.3719H266.181v4.5871h-2.0576V203.9731Zm2.22,1.8393a5.3527,5.3527,0,0,0-2.49-.4342H266.181v4.2264h1.8571a5.58,5.58,0,0,0,1.96-.26,2.0984,2.0984,0,0,0,.43-3.5317"/></g></g></svg>